# xmcd CD database file
#
# Track frame offsets:
#	150
#	3498
#	13509
#	24455
#	43625
#	52385
#	61232
#	76996
#	89577
#	97262
#	104764
#	113294
#	115403
#	125257
#	136589
#	143483
#	146692
#	158890
#	166211
#	170679
#	179025
#	189736
#
# Disc length: 2786 seconds
#
# Revision: 0
# Processed by: cddbd v1.5.2PL0 Copyright (c) Steve Scherf et al.
# Submitted via: CDex 1.60beta1-cs1
#
DISCID=330ae016
DTITLE=Various Artist - おやこで楽しく遊ぼ　メロディでにこにこBook
DYEAR=2004
DGENRE=New Age
TTITLE0=小さな世界（オープニング）
TTITLE1=おもちゃのチャチャチャ
TTITLE2=ふしぎなポケット
TTITLE3=大きなふるどけい
TTITLE4=アイアイ
TTITLE5=かわいいかくれんぼ
TTITLE6=森へいきましょう
TTITLE7=ソーラン節
TTITLE8=ちょちちょちあわわ
TTITLE9=ぼうずぼうず
TTITLE10=いっぽんばしこちょこちょ
TTITLE11=あがりめ　さがりめ
TTITLE12=あたま　かた　ひざぽん
TTITLE13=きしゃポッポ
TTITLE14=ゆうやけこやけ
TTITLE15=ぞうさん
TTITLE16=とんでったバナナ
TTITLE17=犬のおまわりさん
TTITLE18=かえるのうた
TTITLE19=Abcのうた
TTITLE20=小さな世界（オルゴールバージョン）
TTITLE21=大きなふるどけい（カラオケ）
EXTD=YEAR: 2004
EXTT0=
EXTT1=
EXTT2=
EXTT3=
EXTT4=
EXTT5=
EXTT6=
EXTT7=
EXTT8=
EXTT9=
EXTT10=
EXTT11=
EXTT12=
EXTT13=
EXTT14=
EXTT15=
EXTT16=
EXTT17=
EXTT18=
EXTT19=
EXTT20=
EXTT21=
PLAYORDER=
